<?xml version="1.0" encoding="UTF-8" standalone="no"?>
<!-- Generator: Adobe Illustrator 16.0.0, SVG Export Plug-In . SVG Version: 6.00 Build 0)  -->

<svg
   xmlns:dc="http://purl.org/dc/elements/1.1/"
   xmlns:cc="http://creativecommons.org/ns#"
   xmlns:rdf="http://www.w3.org/1999/02/22-rdf-syntax-ns#"
   xmlns:svg="http://www.w3.org/2000/svg"
   xmlns="http://www.w3.org/2000/svg"
   xmlns:sodipodi="http://sodipodi.sourceforge.net/DTD/sodipodi-0.dtd"
   xmlns:inkscape="http://www.inkscape.org/namespaces/inkscape"
   version="1.1"
   id="Layer_1"
   x="0px"
   y="0px"
   width="207.53131"
   height="38.80751"
   viewBox="0 0 207.53132 38.80751"
   enable-background="new 0 0 533.105 127.333"
   xml:space="preserve"
   inkscape:version="0.48.5 r10040"
   sodipodi:docname="header-logo.svg"><metadata
   id="metadata77"><rdf:RDF><cc:Work
       rdf:about=""><dc:format>image/svg+xml</dc:format><dc:type
         rdf:resource="http://purl.org/dc/dcmitype/StillImage" /><dc:title /></cc:Work></rdf:RDF></metadata><defs
   id="defs75" /><sodipodi:namedview
   pagecolor="#ffffff"
   bordercolor="#666666"
   borderopacity="1"
   objecttolerance="10"
   gridtolerance="10"
   guidetolerance="10"
   inkscape:pageopacity="0"
   inkscape:pageshadow="2"
   inkscape:window-width="1107"
   inkscape:window-height="480"
   id="namedview73"
   showgrid="false"
   inkscape:zoom="2.2659702"
   inkscape:cx="126.02411"
   inkscape:cy="10.259409"
   inkscape:window-x="684"
   inkscape:window-y="219"
   inkscape:window-maximized="0"
   inkscape:current-layer="Layer_1"
   fit-margin-top="0"
   fit-margin-left="0"
   fit-margin-right="0"
   fit-margin-bottom="0" />
<g
   id="g3"
   transform="matrix(0.4266531,0,0,0.4266531,-2.2412087,-2.828711)">
	<g
   id="g5">
		<polygon
   points="64.818,6.63 45.587,6.63 45.587,29.347 24.485,29.347 24.485,6.63 5.253,6.63 5.253,67.663 24.485,67.663 24.485,43.663 45.587,43.663 45.587,67.663 64.818,67.663 "
   id="polygon7"
   style="fill:#005392" />
	</g>
	<g
   id="g9">
		<path
   d="m 102.131,77.751 22.688,-54.756 h -18.667 l -10,27.668 L 85.444,22.995 H 67.818 v 0.836 L 86.243,71.347 H 76.069 v 14.318 h 18.749 v -0.021 c 3.111,-0.182 6.074,-3.391 7.313,-7.893 z"
   id="path11"
   inkscape:connector-curvature="0"
   style="fill:#005392" />
	</g>
	<g
   id="g13">
		<path
   d="M 312.858,51.831 V 29.808 c 0,-4.037 -6.846,-7.307 -15.289,-7.307 -5.572,0 -10.432,1.428 -13.105,3.555 -2.672,-2.127 -7.533,-3.555 -13.104,-3.555 -5.643,0 -10.559,1.465 -13.209,3.637 v -3.143 h -16.334 v 44.668 h 16.334 v -29 h 10.666 v 29 h 16.334 v -29 h 10.666 v 18 h 0.07 c -0.041,0.373 -0.07,0.752 -0.07,1.137 0,5.121 3.76,9.271 8.396,9.271 v 0.002 h 12.625 V 51.831 h -3.98 z"
   id="path15"
   inkscape:connector-curvature="0"
   style="fill:#005392" />
	</g>
	<g
   id="g17">
		<path
   d="M 176.478,51.579 V 32.407 h -0.022 c -0.184,-5.324 -7.433,-9.729 -16.454,-9.9 -6.275,-0.123 -11.775,1.834 -14.679,4.822 h -0.171 V 22.995 H 126.92 v 44.668 h 18.231 v -29 -0.084 h 14.686 v 19.805 c 0.248,4.463 3.347,8.068 7.316,8.617 v 0.08 h 14.498 V 51.579 h -5.173 z"
   id="path19"
   inkscape:connector-curvature="0"
   style="fill:#005392" />
	</g>
	<g
   id="g21">
		<path
   d="M 425.228,51.827 V 32.655 h -0.021 c -0.184,-5.324 -7.434,-9.729 -16.455,-9.9 -6.275,-0.123 -11.775,1.834 -14.678,4.822 h -0.172 v -4.334 h -18.23 v 44.668 h 18.23 v -29 -0.084 h 14.686 v 19.805 c 0.248,4.463 3.348,8.068 7.316,8.617 v 0.08 h 14.607 V 51.827 h -5.283 z"
   id="path23"
   inkscape:connector-curvature="0"
   style="fill:#005392" />
	</g>
	<g
   id="g25">
		<path
   d="M 233.489,51.579 V 6.63 h -17.333 v 19.521 c -1.534,-2.215 -3.945,-3.65 -6.666,-3.65 h -15.668 c -4.217,0 -7.697,4.027 -8.295,9.27 h -0.038 v 0.324 c -0.038,0.418 -0.063,0.842 -0.063,1.273 0,0.431 0.024,0.855 0.063,1.273 v 20.23 c -0.041,0.438 -0.069,0.879 -0.069,1.332 0,0.451 0.028,0.895 0.069,1.332 v 0.273 h 0.032 c 0.569,4.965 3.722,8.83 7.637,9.227 v 0.043 h 16.332 c 3.574,0 6.618,-2.471 7.829,-5.947 1.027,3.582 3.973,6.211 7.503,6.441 v 0.027 h 12.333 v -16.02 h -3.666 z m -16.978,0.34 h -0.355 v 0.271 c -0.065,-0.096 -0.142,-0.18 -0.211,-0.271 h -14.1 V 38.226 h 14.666 v 13.693 z"
   id="path27"
   inkscape:connector-curvature="0"
   style="fill:#005392" />
	</g>
	<g
   id="g29">
		<path
   d="m 368.479,22.501 h -17.334 v 3.65 c -1.533,-2.215 -3.945,-3.65 -6.666,-3.65 h -11.338 -4.33 c -4.217,0 -7.697,4.027 -8.295,9.27 h -0.037 v 0.324 c -0.039,0.418 -0.063,0.842 -0.063,1.273 0,0.431 0.023,0.855 0.063,1.273 v 20.23 c -0.041,0.438 -0.07,0.879 -0.07,1.332 0,0.451 0.029,0.895 0.07,1.332 v 0.273 h 0.031 c 0.57,4.965 3.723,8.83 7.637,9.227 v 0.043 h 16.332 c 3.574,0 6.619,-2.471 7.83,-5.947 1.027,3.582 3.973,6.211 7.502,6.441 v 0.027 h 12.334 v -16.02 h -3.666 V 22.501 z m -16.978,29.418 h -0.355 v 0.271 c -0.064,-0.096 -0.141,-0.18 -0.211,-0.271 h -14.1 V 38.226 h 14.666 v 13.693 z"
   id="path31"
   inkscape:connector-curvature="0"
   style="fill:#005392" />
	</g>
</g>
<g
   id="g33"
   transform="matrix(0.4266531,0,0,0.4266531,-2.2412087,-2.828711)">
	<path
   d="m 445.14,50.897 -7.777,-5.961 2.592,-1.428 c 0,0 1.281,-0.195 0.391,-3.24 -1.166,-3.98 -1.816,-6.869 -1.816,-6.869 l 5.963,1.426 c 0,0 2.334,0.262 3.111,-2.074 0.777,-2.33 0.777,-2.33 0.777,-2.33 l 6.092,6.867 c 0,0 2.463,2.592 1.555,-2.463 -0.908,-5.053 -2.463,-13.348 -2.463,-13.348 l 2.715,1.57 c 0,0 2.648,2.381 4.285,-1.314 1.979,-4.465 3.758,-8.164 3.758,-8.164 l 3.631,8.297 c 0,0 1.295,2.979 3.24,1.814 1.943,-1.168 3.756,-2.463 3.756,-2.463 l -2.85,14.645 c 0,0 -0.389,3.629 2.074,1.166 2.461,-2.463 6.092,-6.352 6.092,-6.352 0,0 0.518,4.148 3.629,3.889 3.111,-0.258 6.482,-0.777 6.482,-0.777 l -2.463,6.871 c 0,0 -0.52,2.332 1.164,3.109 1.686,0.777 2.592,1.168 2.592,1.168 l -12.832,9.723 c 0,0 -1.813,1.426 -1.166,3.496 0.65,2.074 1.039,3.111 1.039,3.111 l -11.277,-2.074 c 0,0 -2.074,-0.518 -2.074,2.074 0,2.594 0.52,6.389 0.52,6.389 l -3.193,0.031 0.471,-7.328 c 0,0 0.26,-1.426 -2.205,-1.035 -2.461,0.389 -11.014,1.943 -11.014,1.943 0,0 2.98,-4.018 0,-6.48 -2.985,-2.463 -4.799,-3.889 -4.799,-3.889 z"
   id="path35"
   inkscape:connector-curvature="0"
   style="fill:#db2d27" />
</g>
<g
   id="g37"
   transform="matrix(0.4266531,0,0,0.4266531,-2.2412087,-2.828711)">
	<path
   d="m 257.264,91.704 h -2.27 l -1.855,-4.907 h -7.422 l -1.746,4.907 h -2.282 l 6.714,-17.505 h 2.124 l 6.737,17.505 z m -4.798,-6.75 -2.746,-7.459 c -0.09,-0.244 -0.179,-0.635 -0.269,-1.172 h -0.049 c -0.081,0.496 -0.175,0.887 -0.28,1.172 l -2.723,7.459 h 6.067 z"
   id="path39"
   inkscape:connector-curvature="0"
   style="fill:#40b7e3" />
	<path
   d="m 278.943,91.081 c -1.277,0.619 -2.945,0.928 -5.004,0.928 -2.686,0 -4.799,-0.789 -6.336,-2.367 -1.539,-1.579 -2.307,-3.683 -2.307,-6.312 0,-2.8 0.863,-5.07 2.594,-6.812 1.729,-1.741 3.973,-2.612 6.732,-2.612 1.709,0 3.148,0.216 4.32,0.647 v 3.796 c -1.172,-0.7 -2.506,-1.05 -4.004,-1.05 -1.643,0 -2.971,0.517 -3.979,1.551 -1.01,1.033 -1.514,2.433 -1.514,4.199 0,1.692 0.475,3.041 1.428,4.046 0.951,1.006 2.234,1.508 3.846,1.508 1.537,0 2.945,-0.374 4.223,-1.123 v 3.601 z"
   id="path41"
   inkscape:connector-curvature="0"
   style="fill:#40b7e3" />
	<path
   d="m 292.848,86.553 h -8.154 c 0.131,1.814 1.273,2.722 3.43,2.722 1.375,0 2.584,-0.325 3.627,-0.977 v 2.783 c -1.156,0.619 -2.658,0.928 -4.506,0.928 -2.018,0 -3.584,-0.559 -4.699,-1.678 -1.115,-1.119 -1.672,-2.68 -1.672,-4.682 0,-2.075 0.602,-3.719 1.807,-4.932 1.203,-1.213 2.686,-1.818 4.443,-1.818 1.822,0 3.232,0.541 4.229,1.623 0.998,1.082 1.496,2.551 1.496,4.406 v 1.625 z m -3.577,-2.368 c 0,-1.79 -0.725,-2.686 -2.174,-2.686 -0.617,0 -1.152,0.256 -1.605,0.77 -0.451,0.512 -0.725,1.151 -0.822,1.916 h 4.601 z"
   id="path43"
   inkscape:connector-curvature="0"
   style="fill:#40b7e3" />
	<path
   d="m 299,91.704 h -3.857 V 73.198 H 299 v 18.506 z"
   id="path45"
   inkscape:connector-curvature="0"
   style="fill:#40b7e3" />
	<path
   d="m 312.646,91.704 h -3.648 v -1.795 h -0.049 c -0.838,1.4 -2.08,2.1 -3.725,2.1 -1.211,0 -2.166,-0.343 -2.861,-1.031 -0.695,-0.688 -1.045,-1.605 -1.045,-2.752 0,-2.426 1.438,-3.825 4.311,-4.199 l 3.393,-0.452 c 0,-1.367 -0.74,-2.051 -2.221,-2.051 -1.49,0 -2.906,0.443 -4.248,1.331 v -2.906 c 0.537,-0.276 1.271,-0.521 2.203,-0.732 0.932,-0.211 1.779,-0.316 2.545,-0.316 3.564,0 5.346,1.777 5.346,5.334 v 7.469 z m -3.625,-5.078 v -0.842 l -2.27,0.293 c -1.254,0.162 -1.881,0.728 -1.881,1.696 0,0.439 0.152,0.8 0.459,1.08 0.305,0.281 0.717,0.421 1.238,0.421 0.725,0 1.314,-0.25 1.77,-0.75 0.458,-0.501 0.684,-1.133 0.684,-1.898 z"
   id="path47"
   inkscape:connector-curvature="0"
   style="fill:#40b7e3" />
	<path
   d="m 327.932,91.704 h -3.857 v -1.721 h -0.049 c -0.879,1.351 -2.17,2.025 -3.871,2.025 -1.563,0 -2.818,-0.551 -3.771,-1.653 -0.951,-1.103 -1.428,-2.644 -1.428,-4.62 0,-2.067 0.525,-3.724 1.574,-4.969 1.051,-1.245 2.426,-1.867 4.127,-1.867 1.611,0 2.734,0.577 3.369,1.732 h 0.049 v -7.434 h 3.857 v 18.507 z m -3.786,-6.079 v -0.94 c 0,-0.813 -0.236,-1.488 -0.707,-2.025 -0.473,-0.537 -1.088,-0.807 -1.844,-0.807 -0.855,0 -1.521,0.336 -2.002,1.008 -0.48,0.671 -0.721,1.593 -0.721,2.765 0,1.099 0.232,1.945 0.695,2.539 0.465,0.594 1.107,0.892 1.93,0.892 0.781,0 1.418,-0.313 1.91,-0.94 0.492,-0.627 0.739,-1.459 0.739,-2.492 z"
   id="path49"
   inkscape:connector-curvature="0"
   style="fill:#40b7e3" />
	<path
   d="m 337.135,92.009 c -2.084,0 -3.721,-0.583 -4.914,-1.751 -1.191,-1.168 -1.787,-2.753 -1.787,-4.755 0,-2.067 0.617,-3.685 1.855,-4.853 1.236,-1.167 2.908,-1.751 5.018,-1.751 2.074,0 3.701,0.584 4.883,1.751 1.18,1.168 1.77,2.712 1.77,4.633 0,2.075 -0.609,3.715 -1.826,4.919 -1.218,1.205 -2.884,1.807 -4.999,1.807 z m 0.097,-10.156 c -0.912,0 -1.619,0.313 -2.123,0.94 -0.506,0.627 -0.758,1.514 -0.758,2.661 0,2.4 0.969,3.602 2.906,3.602 1.846,0 2.77,-1.233 2.77,-3.699 0,-2.336 -0.931,-3.504 -2.795,-3.504 z"
   id="path51"
   inkscape:connector-curvature="0"
   style="fill:#40b7e3" />
	<path
   d="m 358.533,91.704 h -3.844 v -6.945 c 0,-1.938 -0.693,-2.906 -2.076,-2.906 -0.668,0 -1.217,0.257 -1.648,0.77 -0.431,0.513 -0.646,1.164 -0.646,1.953 v 7.129 h -3.857 v -12.5 h 3.857 v 1.978 h 0.049 c 0.92,-1.521 2.258,-2.282 4.016,-2.282 2.768,0 4.15,1.717 4.15,5.15 v 7.653 z"
   id="path53"
   inkscape:connector-curvature="0"
   style="fill:#40b7e3" />
	<path
   d="m 381.02,90.972 c -1.295,0.684 -2.906,1.025 -4.834,1.025 -2.49,0 -4.484,-0.802 -5.982,-2.404 -1.496,-1.604 -2.246,-3.707 -2.246,-6.312 0,-2.8 0.844,-5.062 2.527,-6.787 1.686,-1.726 3.82,-2.588 6.408,-2.588 1.66,0 3.035,0.24 4.127,0.72 v 2.186 c -1.254,-0.7 -2.637,-1.05 -4.15,-1.05 -2.01,0 -3.641,0.671 -4.889,2.015 -1.25,1.342 -1.875,3.137 -1.875,5.383 0,2.132 0.584,3.831 1.752,5.097 1.168,1.266 2.699,1.897 4.596,1.897 1.758,0 3.279,-0.391 4.566,-1.172 v 1.99 z"
   id="path55"
   inkscape:connector-curvature="0"
   style="fill:#40b7e3" />
	<path
   d="m 389.539,91.997 c -1.848,0 -3.322,-0.584 -4.424,-1.752 -1.104,-1.167 -1.654,-2.716 -1.654,-4.645 0,-2.1 0.574,-3.739 1.721,-4.92 1.148,-1.18 2.697,-1.77 4.65,-1.77 1.863,0 3.318,0.574 4.365,1.721 1.045,1.148 1.568,2.739 1.568,4.773 0,1.994 -0.564,3.591 -1.691,4.791 -1.127,1.202 -2.638,1.802 -4.535,1.802 z m 0.147,-11.401 c -1.285,0 -2.303,0.438 -3.051,1.313 -0.75,0.875 -1.123,2.081 -1.123,3.619 0,1.481 0.379,2.649 1.135,3.503 0.758,0.855 1.77,1.282 3.039,1.282 1.295,0 2.289,-0.419 2.984,-1.257 0.697,-0.839 1.045,-2.031 1.045,-3.577 0,-1.563 -0.348,-2.767 -1.045,-3.613 -0.695,-0.847 -1.69,-1.27 -2.984,-1.27 z"
   id="path57"
   inkscape:connector-curvature="0"
   style="fill:#40b7e3" />
	<path
   d="m 416.713,91.704 h -2.002 v -7.178 c 0,-1.384 -0.215,-2.385 -0.641,-3.003 -0.428,-0.618 -1.146,-0.928 -2.154,-0.928 -0.855,0 -1.582,0.391 -2.18,1.172 -0.598,0.781 -0.896,1.717 -0.896,2.808 v 7.129 h -2.002 v -7.422 c 0,-2.458 -0.949,-3.687 -2.846,-3.687 -0.879,0 -1.604,0.368 -2.172,1.104 -0.57,0.737 -0.855,1.695 -0.855,2.875 v 7.129 h -2.002 v -12.5 h 2.002 v 1.978 h 0.049 c 0.887,-1.514 2.182,-2.271 3.883,-2.271 0.854,0 1.6,0.238 2.234,0.714 0.635,0.477 1.068,1.101 1.305,1.874 0.928,-1.726 2.313,-2.588 4.15,-2.588 2.752,0 4.127,1.697 4.127,5.09 v 7.704 z"
   id="path59"
   inkscape:connector-curvature="0"
   style="fill:#40b7e3" />
	<path
   d="m 422.547,89.897 h -0.049 v 7.557 h -2.002 v -18.25 h 2.002 v 2.197 h 0.049 c 0.984,-1.66 2.426,-2.49 4.322,-2.49 1.611,0 2.869,0.56 3.771,1.679 0.904,1.119 1.355,2.618 1.355,4.498 0,2.092 -0.51,3.766 -1.525,5.023 -1.018,1.257 -2.41,1.886 -4.176,1.886 -1.618,0 -2.868,-0.7 -3.747,-2.1 z m -0.049,-5.041 v 1.745 c 0,1.033 0.336,1.91 1.008,2.631 0.672,0.72 1.523,1.08 2.557,1.08 1.213,0 2.162,-0.464 2.852,-1.392 0.688,-0.928 1.031,-2.218 1.031,-3.869 0,-1.393 -0.322,-2.482 -0.965,-3.271 -0.643,-0.79 -1.514,-1.185 -2.611,-1.185 -1.164,0 -2.1,0.405 -2.809,1.215 -0.707,0.81 -1.063,1.826 -1.063,3.046 z"
   id="path61"
   inkscape:connector-curvature="0"
   style="fill:#40b7e3" />
	<path
   d="m 444.143,91.704 h -2.002 v -1.953 h -0.049 c -0.871,1.497 -2.154,2.246 -3.846,2.246 -1.246,0 -2.221,-0.33 -2.924,-0.988 -0.705,-0.66 -1.057,-1.534 -1.057,-2.625 0,-2.336 1.375,-3.694 4.127,-4.077 l 3.748,-0.524 c 0,-2.125 -0.859,-3.187 -2.576,-3.187 -1.506,0 -2.865,0.513 -4.078,1.538 v -2.051 c 1.229,-0.781 2.645,-1.172 4.248,-1.172 2.938,0 4.408,1.555 4.408,4.663 v 8.13 z m -2.002,-6.323 -3.016,0.415 c -0.928,0.13 -1.629,0.36 -2.1,0.689 -0.473,0.33 -0.709,0.914 -0.709,1.752 0,0.61 0.219,1.109 0.654,1.495 0.434,0.387 1.014,0.58 1.738,0.58 0.994,0 1.813,-0.348 2.461,-1.044 0.646,-0.695 0.971,-1.576 0.971,-2.643 v -1.244 z"
   id="path63"
   inkscape:connector-curvature="0"
   style="fill:#40b7e3" />
	<path
   d="m 458.289,91.704 h -2.002 v -7.129 c 0,-2.653 -0.969,-3.979 -2.904,-3.979 -1.002,0 -1.83,0.377 -2.484,1.129 -0.656,0.753 -0.982,1.703 -0.982,2.851 v 7.129 h -2.002 v -12.5 h 2.002 v 2.075 h 0.049 c 0.943,-1.579 2.311,-2.368 4.102,-2.368 1.367,0 2.412,0.441 3.137,1.324 0.725,0.884 1.086,2.159 1.086,3.827 v 7.641 z"
   id="path65"
   inkscape:connector-curvature="0"
   style="fill:#40b7e3" />
	<path
   d="m 472.01,79.204 -5.75,14.502 c -1.025,2.588 -2.465,3.882 -4.32,3.882 -0.521,0 -0.957,-0.053 -1.307,-0.159 v -1.794 c 0.432,0.146 0.826,0.22 1.184,0.22 1.01,0 1.766,-0.603 2.271,-1.807 l 1,-2.368 -4.883,-12.476 h 2.223 l 3.381,9.619 c 0.041,0.122 0.127,0.439 0.256,0.952 h 0.074 c 0.041,-0.195 0.121,-0.505 0.244,-0.928 l 3.553,-9.644 h 2.074 z"
   id="path67"
   inkscape:connector-curvature="0"
   style="fill:#40b7e3" />
</g>
<g
   id="g69"
   transform="matrix(0.4266531,0,0,0.4266531,-2.2412087,-2.828711)">
	<polygon
   points="429.53,70.604 429.521,59.468 429.511,48.331 437.755,53.892 445.999,59.454 437.765,65.03 "
   id="polygon71"
   style="fill:#005392" />
</g>
</svg>