<?xml version="1.0" encoding="UTF-8" standalone="no"?>
<!-- Generator: Adobe Illustrator 16.0.0, SVG Export Plug-In . SVG Version: 6.00 Build 0)  -->

<svg
   xmlns:dc="http://purl.org/dc/elements/1.1/"
   xmlns:cc="http://creativecommons.org/ns#"
   xmlns:rdf="http://www.w3.org/1999/02/22-rdf-syntax-ns#"
   xmlns:svg="http://www.w3.org/2000/svg"
   xmlns="http://www.w3.org/2000/svg"
   xmlns:xlink="http://www.w3.org/1999/xlink"
   xmlns:sodipodi="http://sodipodi.sourceforge.net/DTD/sodipodi-0.dtd"
   xmlns:inkscape="http://www.inkscape.org/namespaces/inkscape"
   version="1.1"
   id="Layer_1"
   x="0px"
   y="0px"
   width="57.52"
   height="40"
   viewBox="0 0 57.52 39.999999"
   enable-background="new 0 0 737.963 506.975"
   xml:space="preserve"
   inkscape:version="0.48.5 r10040"
   sodipodi:docname="OsbornLogo.svg"><metadata
   id="metadata129"><rdf:RDF><cc:Work
       rdf:about=""><dc:format>image/svg+xml</dc:format><dc:type
         rdf:resource="http://purl.org/dc/dcmitype/StillImage" /></cc:Work></rdf:RDF></metadata><defs
   id="defs127" /><sodipodi:namedview
   pagecolor="#ffffff"
   bordercolor="#666666"
   borderopacity="1"
   objecttolerance="10"
   gridtolerance="10"
   guidetolerance="10"
   inkscape:pageopacity="0"
   inkscape:pageshadow="2"
   inkscape:window-width="1097"
   inkscape:window-height="480"
   id="namedview125"
   showgrid="false"
   fit-margin-top="0"
   fit-margin-left="0"
   fit-margin-right="0"
   fit-margin-bottom="0"
   inkscape:zoom="3.2738768"
   inkscape:cx="74.990207"
   inkscape:cy="8.256175"
   inkscape:window-x="769"
   inkscape:window-y="297"
   inkscape:window-maximized="0"
   inkscape:current-layer="Layer_1" />
<g
   id="g3"
   transform="matrix(0.08988804,0,0,0.08988804,-4.1237049,-2.7854601)">
	<defs
   id="defs5">
		<polygon
   id="SVGID_1_"
   points="362.795,475.986 45.876,250.001 362.876,30.988 685.876,250.078 " />
	</defs>
	<clipPath
   id="SVGID_2_">
		<use
   xlink:href="#SVGID_1_"
   overflow="visible"
   id="use9"
   style="overflow:visible"
   x="0"
   y="0"
   width="737.96301"
   height="506.97501" />
	</clipPath>
	<g
   clip-path="url(#SVGID_2_)"
   id="g11">
		<polygon
   points="362.795,475.986 45.876,250.001 362.876,30.988 685.876,250.078 "
   id="polygon13"
   style="fill:#790002" />
	</g>
	<g
   clip-path="url(#SVGID_2_)"
   id="g15">
		<rect
   x="87.843002"
   y="194.23801"
   width="555.03302"
   height="7.441"
   id="rect17" />
	</g>
	<g
   clip-path="url(#SVGID_2_)"
   id="g19">
		<rect
   x="87.843002"
   y="179.23801"
   width="555.03302"
   height="7.441"
   id="rect21" />
	</g>
	<g
   clip-path="url(#SVGID_2_)"
   id="g23">
		<rect
   x="87.843002"
   y="164.23801"
   width="555.03302"
   height="7.441"
   id="rect25" />
	</g>
	<g
   clip-path="url(#SVGID_2_)"
   id="g27">
		<rect
   x="87.843002"
   y="149.23801"
   width="555.03302"
   height="7.441"
   id="rect29" />
	</g>
	<g
   clip-path="url(#SVGID_2_)"
   id="g31">
		<rect
   x="87.843002"
   y="134.23801"
   width="555.03302"
   height="7.441"
   id="rect33" />
	</g>
	<g
   clip-path="url(#SVGID_2_)"
   id="g35">
		<rect
   x="87.843002"
   y="119.238"
   width="555.03302"
   height="7.441"
   id="rect37" />
	</g>
	<g
   clip-path="url(#SVGID_2_)"
   id="g39">
		<rect
   x="87.843002"
   y="104.238"
   width="555.03302"
   height="7.441"
   id="rect41" />
	</g>
	<g
   clip-path="url(#SVGID_2_)"
   id="g43">
		<rect
   x="87.843002"
   y="89.237999"
   width="555.03302"
   height="7.441"
   id="rect45" />
	</g>
	<g
   clip-path="url(#SVGID_2_)"
   id="g47">
		<rect
   x="87.843002"
   y="74.237999"
   width="555.03302"
   height="7.441"
   id="rect49" />
	</g>
	<g
   clip-path="url(#SVGID_2_)"
   id="g51">
		<rect
   x="87.843002"
   y="59.237999"
   width="555.03302"
   height="7.441"
   id="rect53" />
	</g>
	<g
   clip-path="url(#SVGID_2_)"
   id="g55">
		<rect
   x="87.843002"
   y="44.237999"
   width="555.03302"
   height="7.441"
   id="rect57" />
	</g>
	<g
   clip-path="url(#SVGID_2_)"
   id="g59">
		<rect
   x="87.843002"
   y="29.238001"
   width="555.03302"
   height="7.441"
   id="rect61" />
	</g>
	<g
   clip-path="url(#SVGID_2_)"
   id="g63">
		<rect
   x="87.843002"
   y="476.23599"
   width="555.03302"
   height="7.441"
   id="rect65" />
	</g>
	<g
   clip-path="url(#SVGID_2_)"
   id="g67">
		<rect
   x="87.843002"
   y="461.23599"
   width="555.03302"
   height="7.441"
   id="rect69" />
	</g>
	<g
   clip-path="url(#SVGID_2_)"
   id="g71">
		<rect
   x="87.843002"
   y="446.23599"
   width="555.03302"
   height="7.441"
   id="rect73" />
	</g>
	<g
   clip-path="url(#SVGID_2_)"
   id="g75">
		<rect
   x="87.843002"
   y="431.23599"
   width="555.03302"
   height="7.441"
   id="rect77" />
	</g>
	<g
   clip-path="url(#SVGID_2_)"
   id="g79">
		<rect
   x="87.843002"
   y="416.23599"
   width="555.03302"
   height="7.441"
   id="rect81" />
	</g>
	<g
   clip-path="url(#SVGID_2_)"
   id="g83">
		<rect
   x="87.843002"
   y="401.23599"
   width="555.03302"
   height="7.441"
   id="rect85" />
	</g>
	<g
   clip-path="url(#SVGID_2_)"
   id="g87">
		<rect
   x="87.843002"
   y="386.23599"
   width="555.03302"
   height="7.441"
   id="rect89" />
	</g>
	<g
   clip-path="url(#SVGID_2_)"
   id="g91">
		<rect
   x="87.843002"
   y="371.23599"
   width="555.03302"
   height="7.441"
   id="rect93" />
	</g>
	<g
   clip-path="url(#SVGID_2_)"
   id="g95">
		<rect
   x="87.843002"
   y="356.23599"
   width="555.03302"
   height="7.441"
   id="rect97" />
	</g>
	<g
   clip-path="url(#SVGID_2_)"
   id="g99">
		<rect
   x="87.843002"
   y="341.23599"
   width="555.03302"
   height="7.441"
   id="rect101" />
	</g>
	<g
   clip-path="url(#SVGID_2_)"
   id="g103">
		<rect
   x="87.843002"
   y="326.23599"
   width="555.03302"
   height="7.441"
   id="rect105" />
	</g>
	<g
   clip-path="url(#SVGID_2_)"
   id="g107">
		<rect
   x="87.843002"
   y="311.23599"
   width="555.03302"
   height="7.441"
   id="rect109" />
	</g>
</g>
<g
   id="g111"
   transform="matrix(0.08988804,0,0,0.08988804,-4.1237049,-2.7854601)">
	<path
   d="m 140.993,258.938 c 0,-10.28 3.667,-18.285 11.003,-24.012 7.336,-5.727 17.551,-8.591 30.645,-8.591 13.424,0 23.766,2.813 31.028,8.441 7.262,5.627 10.894,13.509 10.894,23.647 0,7.36 -1.588,13.396 -4.76,18.106 -3.172,4.711 -7.757,8.377 -13.754,10.996 -5.996,2.621 -13.47,3.932 -22.418,3.932 -9.098,0 -16.625,-1.131 -22.584,-3.395 -5.961,-2.262 -10.793,-5.842 -14.497,-10.738 -3.705,-4.897 -5.557,-11.025 -5.557,-18.386 z m 24.923,0.086 c 0,6.357 1.512,10.926 4.538,13.703 3.026,2.778 7.143,4.167 12.351,4.167 5.355,0 9.499,-1.36 12.434,-4.081 2.934,-2.72 4.401,-7.604 4.401,-14.648 0,-5.928 -1.532,-10.259 -4.594,-12.994 -3.063,-2.734 -7.216,-4.102 -12.461,-4.102 -5.025,0 -9.06,1.389 -12.104,4.167 -3.044,2.778 -4.565,7.374 -4.565,13.788 z"
   id="path113"
   inkscape:connector-curvature="0"
   style="fill:#ffffff" />
	<path
   d="m 222.373,269.549 23.711,-1.16 c 0.514,3.008 1.559,5.299 3.136,6.873 2.567,2.549 6.235,3.822 11.003,3.822 3.558,0 6.3,-0.65 8.225,-1.953 1.926,-1.303 2.889,-2.813 2.889,-4.532 0,-1.632 -0.917,-3.093 -2.75,-4.382 -1.835,-1.288 -6.09,-2.505 -12.764,-3.65 -10.931,-1.919 -18.725,-4.468 -23.382,-7.646 -4.695,-3.179 -7.042,-7.231 -7.042,-12.157 0,-3.235 1.201,-6.293 3.604,-9.171 2.401,-2.878 6.015,-5.14 10.838,-6.787 4.822,-1.646 11.434,-2.47 19.833,-2.47 10.306,0 18.163,1.497 23.574,4.489 5.409,2.993 8.628,7.753 9.655,14.283 l -23.492,1.074 c -0.623,-2.835 -1.935,-4.897 -3.934,-6.186 -1.999,-1.289 -4.758,-1.933 -8.279,-1.933 -2.898,0 -5.08,0.48 -6.547,1.439 -1.467,0.96 -2.201,2.126 -2.201,3.501 0,1.003 0.605,1.904 1.816,2.706 1.173,0.831 3.961,1.604 8.361,2.319 10.894,1.833 18.696,3.688 23.41,5.563 4.712,1.876 8.142,4.203 10.287,6.98 2.146,2.777 3.219,5.885 3.219,9.321 0,4.038 -1.431,7.76 -4.291,11.168 -2.861,3.408 -6.859,5.992 -11.994,7.754 -5.135,1.762 -11.607,2.643 -19.42,2.643 -13.718,0 -23.217,-2.063 -28.498,-6.188 -5.282,-4.123 -8.272,-9.363 -8.967,-15.72 z"
   id="path115"
   inkscape:connector-curvature="0"
   style="fill:#ffffff" />
	<path
   d="m 296.874,227.409 h 46.653 c 7.775,0 13.744,1.503 17.907,4.51 4.162,3.007 6.244,6.73 6.244,11.169 0,3.723 -1.485,6.916 -4.456,9.579 -1.98,1.776 -4.878,3.179 -8.692,4.21 5.795,1.089 10.059,2.957 12.791,5.605 2.732,2.649 4.099,5.979 4.099,9.987 0,3.265 -0.972,6.2 -2.916,8.806 -1.944,2.606 -4.603,4.668 -7.977,6.186 -2.091,0.945 -5.246,1.633 -9.463,2.063 -5.611,0.572 -9.334,0.859 -11.168,0.859 h -43.022 v -62.974 z m 25.141,24.699 h 10.839 c 3.888,0 6.593,-0.522 8.114,-1.567 1.521,-1.045 2.283,-2.557 2.283,-4.532 0,-1.832 -0.762,-3.265 -2.283,-4.295 -1.521,-1.031 -4.172,-1.547 -7.949,-1.547 h -11.004 v 11.941 z m 0,24.744 h 12.709 c 4.291,0 7.317,-0.594 9.078,-1.783 1.76,-1.188 2.641,-2.784 2.641,-4.789 0,-1.861 -0.872,-3.357 -2.613,-4.489 -1.742,-1.131 -4.796,-1.696 -9.16,-1.696 h -12.654 v 12.757 z"
   id="path117"
   inkscape:connector-curvature="0"
   style="fill:#ffffff" />
	<path
   d="m 370.055,258.938 c 0,-10.28 3.667,-18.285 11.003,-24.012 7.336,-5.727 17.551,-8.591 30.644,-8.591 13.424,0 23.767,2.813 31.029,8.441 7.262,5.627 10.893,13.509 10.893,23.647 0,7.36 -1.587,13.396 -4.759,18.106 -3.173,4.711 -7.757,8.377 -13.754,10.996 -5.996,2.621 -13.47,3.932 -22.419,3.932 -9.096,0 -16.624,-1.131 -22.583,-3.395 -5.961,-2.262 -10.793,-5.842 -14.497,-10.738 -3.705,-4.897 -5.557,-11.025 -5.557,-18.386 z m 24.922,0.086 c 0,6.357 1.514,10.926 4.539,13.703 3.026,2.778 7.143,4.167 12.351,4.167 5.354,0 9.499,-1.36 12.434,-4.081 2.935,-2.72 4.401,-7.604 4.401,-14.648 0,-5.928 -1.531,-10.259 -4.594,-12.994 -3.063,-2.734 -7.217,-4.102 -12.461,-4.102 -5.025,0 -9.06,1.389 -12.104,4.167 -3.044,2.778 -4.566,7.374 -4.566,13.788 z"
   id="path119"
   inkscape:connector-curvature="0"
   style="fill:#ffffff" />
	<path
   d="m 456.11,290.383 v -62.974 h 41.537 c 7.702,0 13.589,0.516 17.66,1.546 4.071,1.03 7.353,2.942 9.848,5.735 2.493,2.792 3.741,6.193 3.741,10.202 0,3.494 -0.954,6.508 -2.863,9.043 -1.908,2.534 -4.532,4.589 -7.871,6.164 -2.128,1.003 -5.046,1.833 -8.753,2.491 2.969,0.774 5.132,1.549 6.488,2.322 0.916,0.516 2.244,1.619 3.985,3.311 1.741,1.692 2.905,2.995 3.491,3.912 l 12.069,18.248 h -28.16 L 493.96,271.139 c -1.688,-2.492 -3.19,-4.109 -4.511,-4.854 -1.798,-0.974 -3.833,-1.461 -6.106,-1.461 h -2.201 v 25.56 H 456.11 z m 25.032,-37.458 h 10.508 c 1.137,0 3.337,-0.286 6.603,-0.859 1.65,-0.258 2.998,-0.916 4.043,-1.976 1.046,-1.06 1.568,-2.277 1.568,-3.651 0,-2.033 -0.825,-3.594 -2.476,-4.682 -1.651,-1.088 -4.75,-1.633 -9.298,-1.633 h -10.948 v 12.801 z"
   id="path121"
   inkscape:connector-curvature="0"
   style="fill:#ffffff" />
	<path
   d="m 532.317,227.409 h 23.271 l 30.369,34.84 v -34.84 h 23.491 v 62.974 h -23.491 l -30.204,-34.577 v 34.577 h -23.437 v -62.974 z"
   id="path123"
   inkscape:connector-curvature="0"
   style="fill:#ffffff" />
</g>
</svg>