<?xml version="1.0" encoding="UTF-8" standalone="no"?>
<!-- Generator: Adobe Illustrator 16.0.0, SVG Export Plug-In . SVG Version: 6.00 Build 0)  -->

<svg
   xmlns:dc="http://purl.org/dc/elements/1.1/"
   xmlns:cc="http://creativecommons.org/ns#"
   xmlns:rdf="http://www.w3.org/1999/02/22-rdf-syntax-ns#"
   xmlns:svg="http://www.w3.org/2000/svg"
   xmlns="http://www.w3.org/2000/svg"
   xmlns:sodipodi="http://sodipodi.sourceforge.net/DTD/sodipodi-0.dtd"
   xmlns:inkscape="http://www.inkscape.org/namespaces/inkscape"
   version="1.1"
   id="Layer_1"
   x="0px"
   y="0px"
   width="90.364388"
   height="37.868107"
   viewBox="0 0 90.364388 37.868107"
   enable-background="new 0 0 203.104 85.83"
   xml:space="preserve"
   inkscape:version="0.48.5 r10040"
   sodipodi:docname="header-logo.svg"><metadata
   id="metadata13"><rdf:RDF><cc:Work
       rdf:about=""><dc:format>image/svg+xml</dc:format><dc:type
         rdf:resource="http://purl.org/dc/dcmitype/StillImage" /><dc:title /></cc:Work></rdf:RDF></metadata><defs
   id="defs11" /><sodipodi:namedview
   pagecolor="#ffffff"
   bordercolor="#666666"
   borderopacity="1"
   objecttolerance="10"
   gridtolerance="10"
   guidetolerance="10"
   inkscape:pageopacity="0"
   inkscape:pageshadow="2"
   inkscape:window-width="1686"
   inkscape:window-height="944"
   id="namedview9"
   showgrid="false"
   inkscape:zoom="4.4816514"
   inkscape:cx="23.644048"
   inkscape:cy="25.966743"
   inkscape:window-x="1945"
   inkscape:window-y="11"
   inkscape:window-maximized="0"
   inkscape:current-layer="g3"
   fit-margin-top="0"
   fit-margin-left="0"
   fit-margin-right="0"
   fit-margin-bottom="0" />
<g
   id="g3"
   transform="matrix(0.29702668,0,0,0.29702668,-0.83931429,13.354063)">
	<path
   d="m 85.835964,34.24229 c -4.51371,5.605605 -11.453692,9.19307 -19.212987,9.19307 -13.637485,0 -24.680018,-11.054577 -24.680018,-24.677007 0,-13.6209233 11.044039,-24.6785121 24.680018,-24.6785121 7.257775,0 13.783587,3.1356447 18.292777,8.1358061 l 0,0 13.467304,-13.471823 0,0 c -7.976172,-8.426478 -19.262686,-13.690205 -31.776651,-13.690205 -24.157407,0 -43.727321,19.5834689 -43.727321,43.7213 0,24.152895 19.57142,43.722808 43.727321,43.722808 13.568217,0 25.711699,-6.182429 33.730033,-15.916179 l 0,0 -14.500476,-12.339258 0,0"
   id="path5"
   inkscape:connector-curvature="0"
   style="fill:#09bcef" />
	<path
   d="m 139.30908,12.17832 1.40969,-5.2652308 0,0 c 1.37505,-4.9926334 2.02717,-8.7487782 2.02717,-11.1072883 -0.11897,-2.344956 -1.07684,-4.405263 -2.88864,-6.0077259 -1.81784,-1.603967 -4.49413,-2.433814 -8.14335,-2.433814 -2.57086,0 -5.02425,0.527125 -7.28034,1.602462 -2.36002,1.0753369 -4.26671,2.4338149 -5.87068,4.2516439 -1.60247,1.847952 -2.89166,3.6627698 -3.64771,5.5694588 -0.74248,2.05729426 -1.70938,4.9323885 -2.78624,8.8993845 l 0,0 -4.37212,15.8453948 0,0 c -1.5121,5.221556 -2.15067,9.2006 -2.15067,11.879903 0,2.65069 0.97142,4.689914 2.77719,6.189963 1.81031,1.394623 4.6101,2.150671 8.03038,2.150671 3.4203,0 6.52582,-0.862979 9.31055,-2.557311 2.78473,-1.744033 4.9339,-3.771208 6.22007,-6.117671 1.27114,-2.347967 2.76968,-6.327011 4.28328,-11.983821 l 0,0 0.63556,-2.150674 h -11.98984 l -1.9338,6.857151 0,0 c -0.86449,3.012145 -1.488,4.929377 -2.03169,5.685427 -0.43677,0.869002 -1.17776,1.170218 -2.03923,1.170218 -0.95485,0 -1.37806,-0.30272 -1.48348,-1.170218 0,-0.75605 0.31778,-2.478998 1.07684,-5.156796 l 0,0 6.95957,-25.1378649 0,0 c 0.74249,-2.79978864 1.37654,-4.4941209 1.90819,-5.3571009 0.44128,-0.8629801 1.17926,-1.2711263 2.14616,-1.2711263 0.97292,0 1.39762,0.314771 1.50155,1.0602769 0,0.6174892 -0.31628,2.36152186 -1.05877,5.1296835 l 0,0 -2.58593,9.4265117 11.97629,-0.0015 0,0 m 17.99305,1.926268 h -3.42028 l 0.95484,-3.313361 0,0 c 0.64912,-2.4729719 1.17925,-3.9564539 1.48048,-4.6161145 0.45784,-0.5286312 0.98346,-0.8313513 1.74101,-0.8313513 0.72292,0 1.05878,0.423206 1.05878,1.0572623 0,0.637069 -0.33285,2.1190447 -0.95335,4.3886975 l 0,0 -0.86148,3.314867 0,0 m 9.53496,7.171919 1.6145,-5.900793 0,0 c 1.15817,-4.25315 1.70036,-7.6011518 1.59192,-10.0334591 -0.2244,-2.3765826 -1.19733,-4.2998386 -2.90672,-5.69144894 -1.69433,-1.48197556 -4.17634,-2.15067246 -7.38276,-2.15067246 -2.64768,0 -5.12819,0.6671905 -7.47766,1.74403266 -2.357,1.2711243 -4.40225,2.98202374 -5.9023,5.21854254 -1.48047,2.2380241 -2.77117,5.2501693 -3.83597,9.2006003 l 0,0 -3.64018,12.971807 0,0 c -0.86146,3.289264 -1.40968,5.765248 -1.5151,7.458074 0,1.742527 0.21236,3.331434 0.84792,4.82847 0.66417,1.400648 1.83138,2.573879 3.43385,3.33294 1.613,0.740988 3.63265,1.161182 6.09959,1.161182 2.48351,0 4.72303,-0.423207 6.65383,-1.161182 1.89765,-0.847919 3.64017,-2.043741 5.12215,-3.738073 1.49552,-1.741021 2.67327,-3.24107 3.42029,-4.724551 0.66568,-1.494026 1.39161,-3.542285 2.15068,-6.292374 l 0,0 0.96539,-3.33294 h -11.04554 l -1.60246,5.885733 0,0 c -0.52864,2.242544 -1.15215,3.635661 -1.60246,4.494123 -0.51508,0.722915 -1.27113,1.057263 -2.12055,1.057263 -0.64762,0 -1.07383,-0.194283 -1.19432,-0.861473 -0.10087,-0.528633 0.22893,-1.81783 0.75756,-3.845005 l 0,0 2.67779,-9.623806 h 14.89055 l 0,0.003 m 24.59267,-32.764592 -14.96435,54.182483 H 164.5825 l 15.09085,-54.182483 h 11.75641 m 8.79546,33.097461 -2.36152,9.203611 0,0 c -0.619,2.111516 -1.18077,3.540779 -1.49102,4.064892 -0.4458,0.530138 -0.97292,0.724421 -1.60848,0.724421 -0.84792,0 -1.17775,-0.331335 -1.28619,-0.948826 -0.0919,-0.635562 0.22591,-2.135611 0.82984,-4.406769 0.56327,-2.030186 1.09492,-3.614575 1.7591,-4.706479 0.61598,-1.05425 2.0091,-2.343449 4.15827,-3.93085 l 0,0 m -1.81633,-6.11315 1.17775,-4.616114 0,0 c 0.63557,-2.4338149 1.1657,-4.046819 1.60095,-4.5844874 0.30424,-0.6506234 0.83587,-0.9518381 1.59193,-0.9518381 0.75454,0 1.06027,0.4247133 1.31631,1.0572632 0,0.7409878 -0.25754,2.2395306 -0.88557,4.5920173 -0.53767,1.808793 -0.95938,3.006121 -1.40065,3.641684 -0.39309,0.650624 -2.67629,1.814819 -6.94451,3.542284 -3.96549,1.620535 -6.62973,2.997086 -7.81049,4.162787 -1.2877,1.301247 -2.34647,3.543789 -3.21094,6.858657 l 0,0 -1.09493,3.646202 0,0 c -1.16118,4.494123 -1.16118,7.372228 0.1235,8.658415 1.39162,1.28468 3.01215,1.918736 5.04083,1.918736 1.48348,0 2.98202,-0.423206 4.29833,-1.058769 1.35999,-0.759061 2.54226,-2.036211 3.70645,-3.524211 l 0,0 -1.16118,3.858559 h 11.12687 l 6.21857,-22.276327 0,0 c 2.02718,-7.281863 3.20943,-12.2037097 3.41879,-14.5456536 0.19578,-2.3750762 -0.42773,-4.2832706 -1.91874,-6.01676064 -1.49553,-1.61300406 -4.17484,-2.35399186 -8.14183,-2.35399186 -3.20643,0 -5.99267,0.6656841 -8.47468,2.15067246 -2.34796,1.39311564 -4.16429,3.10401504 -5.32848,4.91883324 -1.19583,1.8298789 -2.2546,4.4926154 -3.21095,7.9144144 l 0,0 -0.85997,3.012146 h 10.82415 v -0.0045 m 35.41079,-5.9896523 -5.76223,20.5488613 0,0 c -0.65214,2.468453 -1.17926,3.968502 -1.62055,4.604065 -0.42018,0.617489 -1.05726,0.948826 -1.70938,0.948826 -0.73948,0 -1.05877,-0.19579 -1.05877,-0.86298 -0.1054,-0.530138 0.0889,-1.694332 0.62953,-3.542284 l 0,0 5.98061,-21.6934766 0,0 c 0.45786,-1.7319836 0.866,-2.8961784 1.2877,-3.4233032 0.45333,-0.4412804 0.86148,-0.7424951 1.62054,-0.7424951 0.63255,0 1.05726,0.3012147 1.19583,0.8328595 0.0737,0.656647 -0.13706,1.7214411 -0.56328,3.3299271 l 0,0 m 17.34544,-20.9946127 h -11.54857 l -3.53927,12.6389642 0,0 c -0.64008,-1.29522134 -1.38409,-2.1521779 -2.4549,-2.7802097 -0.99853,-0.5376684 -2.25459,-0.8705099 -3.67482,-0.8705099 -1.89163,0 -3.60252,0.5451982 -5.22155,1.61149766 -1.61451,1.0647941 -2.79226,2.35399194 -3.50915,3.74409784 -0.86449,1.4970353 -1.72596,3.841991 -2.58894,7.2607769 l 0,0 -5.78332,20.77929 0,0 c -0.97292,3.314866 -1.35998,5.677897 -1.35998,7.161378 -0.13706,1.388599 0.39007,2.674785 1.35998,3.748616 1.06027,1.078348 2.46846,1.603967 4.16278,1.603967 1.39162,0 2.67629,-0.316275 4.20948,-0.847919 1.35848,-0.757555 2.77118,-1.692826 4.26219,-3.119077 l 0,0 -0.86148,3.241069 h 11.45971 l 15.08784,-54.171941 0,0 m 12.53204,22.065475 -5.6779,20.429881 0,0 c -0.54219,1.917231 -0.9699,3.209443 -1.3886,3.735061 -0.30422,0.665685 -0.84943,0.861475 -1.60546,0.861475 -0.65515,0 -0.98649,-0.332843 -1.05878,-0.950334 0,-0.635561 0.21236,-1.923254 0.83286,-4.073926 l 0,0 5.56795,-20.005169 0,0 c 0.65063,-2.2591096 1.06328,-3.744097 1.5121,-4.2832717 0.43223,-0.6506234 0.97142,-0.9518381 1.59342,-0.9518381 0.75454,0 1.05726,0.3012147 1.05726,0.9518381 0.13555,0.5421865 -0.19578,2.0271748 -0.83285,4.2862837 l 0,0 m 10.56209,3.314867 0,0 0,0 c 0.86449,-3.105523 1.41872,-5.4474655 1.41872,-7.0604696 0.10991,-1.4910119 -0.2229,-3.0061217 -0.88105,-4.3826722 -0.53767,-1.52715984 -1.56632,-2.67779824 -3.18534,-3.6612632 -1.5859,-0.8479193 -3.73507,-1.286187 -6.31799,-1.286187 -3.11003,0 -5.89778,0.6656841 -8.24274,2.15067236 -2.34495,1.39161034 -4.17784,3.20793584 -5.55438,5.56644584 -1.49554,2.2259752 -2.6763,5.5694578 -3.87212,9.6268188 l 0,0 -3.17632,11.473264 0,0 c -1.00003,3.73506 -1.62052,6.522802 -1.738,8.426479 -0.0934,1.954883 0.21084,3.54379 0.87804,4.829976 0.53012,1.302753 1.58738,2.361523 3.20943,2.997086 1.58591,0.527125 3.63417,0.846413 6.18846,0.846413 2.25158,0 4.40226,-0.314769 6.41136,-1.055757 1.9594,-0.759062 3.77422,-1.924762 5.27125,-3.524211 1.59042,-1.605474 2.75311,-3.423305 3.61458,-5.271256 0.86448,-1.832893 1.93832,-4.814916 2.99708,-8.747272 l 0,0 2.97902,-10.928067 0,0 M 294.08971,-1.7588284 H 282.43874 L 270.0302,42.694401 h 11.54555 l 8.3572,-29.96483 0,0 c 0.94883,-3.3480003 1.5874,-5.479093 2.03923,-6.2200817 0.39458,-0.7424932 0.93979,-1.1641929 1.81933,-1.1641929 0.72292,0 1.1657,0.4216997 1.1657,1.0572633 0,0.6355617 -0.44278,2.5753848 -1.28919,5.5543963 l 0,0 -8.54998,30.740458 h 11.54706 l 8.55148,-31.044684 0,0 c 1.07233,-3.9639852 1.71091,-6.7472086 1.81483,-8.369249 0.13554,-1.6928259 -0.29972,-2.98051834 -1.28619,-4.17031554 -0.95185,-1.06479216 -2.43383,-1.60999226 -4.37214,-1.60999226 -1.60999,0 -3.09648,0.4382686 -4.49261,1.1958235 -1.49703,0.84791836 -2.78473,2.03018466 -4.06791,3.7516267 l 0,0 1.27715,-4.2094732 0,0 M 96.018528,19.517443 l 0,0 h 4.150732 V 17.13781 h -4.150732 l 0,0 H 72.996677 l 0,0 c -0.72141,-2.829911 -3.28776,-4.930882 -6.3481,-4.930882 -3.62511,0 -6.563463,2.942865 -6.563463,6.531838 0,3.635659 2.939859,6.570998 6.563463,6.570998 3.37361,0 6.10864,-2.513636 6.498715,-5.795371 l 0,0 22.871236,0.003 0,0 m 4.244122,27.156004 c -8.018344,9.682545 -20.112116,15.827321 -33.654733,15.827321 -24.157411,0 -43.727325,-19.569912 -43.727325,-43.722807 0,-24.1363251 19.57142,-43.721301 43.727325,-43.721301 12.516975,0 23.803499,5.26975 31.785681,13.699242 l 0,0 14.288132,-14.03359 0,0 c -11.60581,-12.134466 -27.957246,-19.681398 -46.072313,-19.681398 -35.225536,0 -63.7836968,28.54611 -63.7836968,63.755085 0,35.196929 28.5581608,63.735507 63.7836968,63.735507 19.794327,0 37.480153,-8.992763 49.189873,-23.164911 l 0,0 -15.53664,-12.693184 0,0"
   id="path7"
   inkscape:connector-curvature="0"
   style="fill:#00649d" />
</g>
</svg>